<svg xmlns="http://www.w3.org/2000/svg" version="1.1" xmlns:xlink="http://www.w3.org/1999/xlink" xmlns:svgjs="http://svgjs.dev/svgjs" width="1000" height="333" viewBox="0 0 1000 333"><g transform="matrix(1,0,0,1,-0.6060606060606233,0.2980978864289341)"><svg viewBox="0 0 396 132" data-background-color="#ffffff" preserveAspectRatio="xMidYMid meet" height="333" width="1000" xmlns="http://www.w3.org/2000/svg" xmlns:xlink="http://www.w3.org/1999/xlink"><defs></defs><g id="tight-bounds" transform="matrix(1,0,0,1,0.2400000000000091,-0.1181649279538135)"><svg viewBox="0 0 395.52 132.23632985590766" height="132.23632985590766" width="395.52"><g><svg viewBox="0 0 397.4975999999999 132.89751150518717" height="132.23632985590766" width="395.52"><g><rect width="397.4975999999999" height="4.070475251105918" x="0" y="73.03463008061897" fill="#7c4e29" opacity="1" stroke-width="0" stroke="transparent" fill-opacity="1" class="rect-o-0" data-fill-palette-color="primary" rx="1%" id="o-0" data-palette-color="#7c4e29"></rect></g><g transform="matrix(1,0,0,1,0.9887999999999693,87.76079970634771)"><svg viewBox="0 0 395.52 45.13671179883946" height="45.13671179883946" width="395.52"><g><svg viewBox="0 0 395.52 45.13671179883946" height="45.13671179883946" width="395.52"><g><svg viewBox="0 0 395.52 45.13671179883946" height="45.13671179883946" width="395.52"><g transform="matrix(1,0,0,1,0,0)"><svg width="395.52" viewBox="2 -35.20000076293945 314.2799987792969 35.400001525878906" height="45.13671179883946" data-palette-color="#7c4e29"><g class="undefined-text-0" data-fill-palette-color="primary" id="text-0"><path d="M17.65-32.3L17.65-32.3Q12-32.3 8.7-28.1 5.4-23.9 5.4-16L5.4-16Q5.4-12.6 6.1-10.05 6.8-7.5 7.83-6.1 8.85-4.7 10.35-3.9L10.35-3.9Q12.75-2.55 15.95-2.55L15.95-2.55Q20.9-2.55 25.85-3.65L25.85-3.65 26.45-1.05Q25.6-0.75 21.93-0.28 18.25 0.2 15.95 0.2 13.65 0.2 11.95-0.13 10.25-0.45 8.35-1.5 6.45-2.55 5.13-4.28 3.8-6 2.9-9 2-12 2-16L2-16Q2-24.85 6.05-29.8L6.05-29.8Q10.3-35 17.65-35L17.65-35Q19.9-35 22.53-34.58 25.15-34.15 26.25-33.75L26.25-33.75 26.85-26.55 24.4-26.2 23.7-31.6Q20.5-32.3 17.65-32.3ZM30.1-17.4L30.1-17.4Q30.1-25.55 34.32-30.38 38.55-35.2 44.85-35.2L44.85-35.2Q59.6-35.2 59.6-17.4L59.6-17.4Q59.6-9.3 55.4-4.55 51.2 0.2 44.85 0.2L44.85 0.2Q30.1 0.2 30.1-17.4ZM33.5-17.5L33.5-17.5Q33.5-2.8 44.85-2.8L44.85-2.8Q49.75-2.8 52.97-6.7 56.2-10.6 56.2-17.5L56.2-17.5Q56.2-32.2 44.85-32.2L44.85-32.2Q39.95-32.2 36.72-28.28 33.5-24.35 33.5-17.5ZM82.84-32.25L70.55-32.25 70.55-18.85 81.44-18.85 81.44-22 84.19-22 84.19-13.4 81.44-13.4 81.44-16.1 70.55-16.1 70.55-2.75 74.19-2.75 74.19 0 64.09 0 64.09-2.75 67.14-2.75 67.14-32.25 64.09-32.25 64.09-35 85.34-35 85.3-34.7 85.94-27.8 83.44-27.4 82.84-32.25ZM108.44-32.25L96.14-32.25 96.14-18.85 107.04-18.85 107.04-22 109.79-22 109.79-13.4 107.04-13.4 107.04-16.1 96.14-16.1 96.14-2.75 99.79-2.75 99.79 0 89.69 0 89.69-2.75 92.74-2.75 92.74-32.25 89.69-32.25 89.69-35 110.94-35 110.89-34.7 111.54-27.8 109.04-27.4 108.44-32.25ZM118.34-32.25L115.29-32.25 115.29-35 136.54-35 136.49-34.7 137.14-27.8 134.64-27.4 134.04-32.25 121.74-32.25 121.74-18.85 132.64-18.85 132.64-22 135.39-22 135.39-13.4 132.64-13.4 132.64-16.1 121.74-16.1 121.74-2.75 135.39-2.75 136.14-9 138.59-8.75 137.84 0 115.29 0 115.29-2.75 118.34-2.75 118.34-32.25ZM145.39-32.25L142.34-32.25 142.34-35 163.59-35 163.54-34.7 164.19-27.8 161.69-27.4 161.09-32.25 148.79-32.25 148.79-18.85 159.69-18.85 159.69-22 162.44-22 162.44-13.4 159.69-13.4 159.69-16.1 148.79-16.1 148.79-2.75 162.44-2.75 163.19-9 165.64-8.75 164.89 0 142.34 0 142.34-2.75 145.39-2.75 145.39-32.25Z" fill="#7c4e29" data-fill-palette-color="primary"></path><path d="M171.39-32.25L168.14-32.25 168.14-35 178.89-35Q189.69-35 189.69-26.55L189.69-26.55Q189.69-23 186.99-18.9L186.99-18.9Q191.74-16.95 191.74-10.35L191.74-10.35Q191.74-4.45 188.77-2.23 185.79 0 179.64 0L179.64 0 168.14 0 168.14-2.75 171.39-2.75 171.39-32.25ZM180.64-17.15L180.64-17.15 174.79-17.15 174.79-2.75 179.39-2.75Q181.69-2.75 183.14-3 184.59-3.25 185.89-4L185.89-4Q188.34-5.35 188.34-10.15L188.34-10.15Q188.34-13.95 186.42-15.55 184.49-17.15 180.64-17.15ZM174.79-19.9L180.89-19.9Q182.74-19.9 184.09-19.7L184.09-19.7Q186.29-23.15 186.29-26.25L186.29-26.25Q186.29-32.25 178.64-32.25L178.64-32.25 174.79-32.25 174.79-19.9ZM198.54-32.25L195.49-32.25 195.49-35 207.54-35Q212.69-35 215.49-32.75 218.29-30.5 218.29-26.05L218.29-26.05Q218.29-23.1 216.21-19.93 214.14-16.75 212.14-15.6L212.14-15.6 220.04-2.75 223.59-2.75 223.59 0 218.09 0 209.19-14.35 201.94-14.35 201.94-2.75 205.59-2.75 205.59 0 195.49 0 195.49-2.75 198.54-2.75 198.54-32.25ZM207.29-32.25L207.29-32.25 201.94-32.25 201.94-17.1 210.19-17.1Q214.89-21.4 214.89-25.75L214.89-25.75Q214.89-28.95 212.94-30.6 210.99-32.25 207.29-32.25ZM230.14-32.25L227.09-32.25 227.09-35 248.34-35 248.29-34.7 248.94-27.8 246.44-27.4 245.84-32.25 233.54-32.25 233.54-18.85 244.44-18.85 244.44-22 247.19-22 247.19-13.4 244.44-13.4 244.44-16.1 233.54-16.1 233.54-2.75 247.19-2.75 247.94-9 250.39-8.75 249.64 0 227.09 0 227.09-2.75 230.14-2.75 230.14-32.25ZM286.13 0L276.03 0 276.03-2.75 279.08-2.75 276.78-9.25 261.38-9.25 259.13-2.75 262.73-2.75 262.73 0 252.63 0 252.63-2.75 255.93-2.75 267.58-35 270.63-35 282.68-2.75 286.13-2.75 286.13 0ZM275.88-11.75L268.93-31.2 262.23-11.75 275.88-11.75ZM306.38-32.25L303.68-32.25 303.68-35 313.38-35 313.38-32.25 310.18-32.25 300.03-18.55 312.48-2.75 316.28-2.75 316.28 0 314.68 0 310.83 0.05 296.33-18.3 306.38-32.25ZM299.78-32.25L296.33-32.25 296.33-2.75 299.78-2.75 299.78 0 289.68 0 289.68-2.75 292.93-2.75 292.93-32.25 289.68-32.25 289.68-35 299.78-35 299.78-32.25Z" fill="#7c4e29" data-fill-palette-color="primary"></path></g></svg></g></svg></g></svg></g></svg></g><g transform="matrix(1,0,0,1,123.8940771528046,0)"><svg viewBox="0 0 149.70944569439072 62.37893570599614" height="62.37893570599614" width="149.70944569439072"><g><svg xmlns="http://www.w3.org/2000/svg" xmlns:xlink="http://www.w3.org/1999/xlink" version="1.1" x="0" y="0" viewBox="0 31.5 90 37.5" enable-background="new 0 0 90 90" xml:space="preserve" height="62.37893570599614" width="149.70944569439072" class="icon-icon-0" data-fill-palette-color="accent" id="icon-0"><g fill="#7c4e29" data-fill-palette-color="accent"><path fill="#7c4e29" d="M61 49.9c0 0.5 0.4 0.8 0.8 0.9 0.3 0.1 4.5 1.1 8 2l1.9 1.7 0.5 3h4.4l0.5-3 1.9-1.7c3.5-0.9 7.8-1.9 8.1-2 0.6-0.2 0.9-0.4 0.9-0.9v-8.7H61V49.9zM88.7 31.5H60.2c-0.7 0-1.3 0.6-1.3 1.3v4.6c0 0.7 0.6 1.3 1.3 1.3h28.5c0.7 0 1.3-0.6 1.3-1.3v-4.6C90 32.1 89.4 31.5 88.7 31.5zM55.3 38.6c0-1.2-1-2.2-2.2-2.2H41.2c-1.2 0-2.3 0.7-3.1 1.6l-31-1.9 0 0c-0.1 0-0.1 0-0.2 0C3.1 36.2 0 39.2 0 43s3.1 6.9 6.9 6.9c0.1 0 0.1 0 0.2 0l0 0h0.2c0.1 0 22.7-2 30.3-2.7 0.8 0.8 2 1.5 3.5 1.5H53c1.2 0 2.3-1 2.3-2.2v-0.6H59v-6.8h-3.7V38.6z" data-fill-palette-color="accent"></path></g><g fill="#7c4e29" data-fill-palette-color="accent"><path fill="#7c4e29" d="M74.4 69c1.6 0 2.9-1.3 2.9-2.9 0-1.6-1.4-2.9-2.4-6.3l0 0c0 0-0.1-0.1-0.1-0.1-0.1-0.1-0.2-0.2-0.4-0.2M74.4 59.5c-0.1 0-0.3 0.1-0.4 0.2 0 0-0.1 0.1-0.1 0.1l0 0c-1 3.4-2.4 4.7-2.4 6.3 0 1.6 1.3 2.9 2.9 2.9" data-fill-palette-color="accent"></path></g></svg></g></svg></g><g></g></svg></g></svg><rect width="395.52" height="132.23632985590766" fill="none" stroke="none" visibility="hidden"></rect></g></svg></g></svg>